{"title":"Shes Out Of My League TS XViD - IMAGiNE","uid":5449471,"size":1505711293,"categoryP":"video","categoryS":"movies","magnet":"?xt=urn:btih:851e25af1af1fdf8031eace62b5d93a1f9cc6855&amp;dn=Shes+Out+Of+My+League+TS+XViD+-+IMAGiNE&amp;tr=udp%3A%2F%2Ftracker.openbittorrent.com%3A80&amp;tr=udp%3A%2F%2Fopen.demonii.com%3A1337&amp;tr=udp%3A%2F%2Ftracker.coppersurfer.tk%3A6969&amp;tr=udp%3A%2F%2Fexodus.desync.com%3A6969","seeders":1,"leechers":1,"uploader":"raymondhome","files":-1,"time":1269129716,"description":"Love for All and Sharing is the first step to solving all the problems of humanity.\n\nWebsites I want to share.\n\n    &lt;a href=&quot;\nhttp://www.shareintl.org/&quot; rel=&quot;nofollow&quot; target=&quot;_NEW&quot;&gt;\nhttp://www.shareintl.org/&lt;/a&gt;\n\n    &lt;a href=&quot;\nhttp://www.lightmiddleway.com&quot; rel=&quot;nofollow&quot; target=&quot;_NEW&quot;&gt;\nhttp://www.lightmiddleway.com&lt;/a&gt;\n\n\nThank you very much\n\nNo credit for me...credit to EVERYONE for sharing\n &lt;a href=&quot;\nhttp://thepiratebay.se/user/raymondhome/&quot; rel=&quot;nofollow&quot; target=&quot;_NEW&quot;&gt;\nhttp://thepiratebay.se/user/raymondhome/&lt;/a&gt;\n\nPLOT\nAn average Joe meets the perfect woman, but his lack of confidence and the influence of his friends and family begin to pick away at the relationship.\n\nRuntime.......:1h 40mn\n\nVideo\nID                               : 0\nFormat                           : MPEG-4 Visual\nFormat profile                   : Advanced Simple@L5\nFormat settings, BVOP            : Yes\nFormat settings, QPel            : No\nFormat settings, GMC             : No warppoints\nFormat settings, Matrix          : Default (MPEG)\nMuxing mode                      : Packed bitstream\nCodec ID                         : XVID\nCodec ID/Hint                    : XviD\nDuration                         : 1h 40mn\nBit rate                         : 1 824 Kbps\nWidth                            : 704 pixels\nHeight                           : 288 pixels\nDisplay aspect ratio             : 2.444\nFrame rate                       : 23.976 fps\nResolution                       : 24 bits\nColorimetry                      : 4:2:0\nScan type                        : Progressive\nBits/(Pixel*Frame)               : 0.375\nStream size                      : 1.28 GiB (93%)\nWriting library                  : XviD 1.2.1 (UTC 2008-12-04)\n\nAudio\nID                               : 1\nFormat                           : MPEG Audio\nFormat version                   : Version 1\nFormat profile                   : Layer 3\nCodec ID                         : 55\nCodec ID/Hint                    : MP3\nDuration                         : 1h 40mn\nBit rate mode                    : Constant\nBit rate                         : 128 Kbps\nChannel(s)                       : 2 channels\nSampling rate                    : 48.0 KHz\nResolution                       : 16 bits\nStream size                      : 92.1 MiB (7%)\nAlignment                        : Split accross interleaves\nInterleave, duration             : 42 ms (1.00 video frame)\nInterleave, preload duration     : 500 ms\n\nIMAGiNE NOTES\n\nHere's another nice TS for ya all ....no chairs and only i scene (5secs) where you see someone get up.\nDone all the normal stuff thats needed to both video and audio......tweak colours, rotate video etc....hiss removal add bass etc....to audio.\n\nOn another note....it seems many users are having problems converting releases to dvd, not just with our releases but with alot of others.\nWell the convertx issues is well covered by now in alot of comments, but you can always try nero &quot;make your own dvd&quot;.\nWe've test this release and greenzone with nero on a 2pass convert and both suffered no issues what so ever....A nice looking insync dvd at the end of it.\n\ncredit IMAGiNE &amp; to all the people who made it possible for me to share this with everyone\n\nUPLOAD DEDICATED TO redchaos2354, Motley Crue, jdpennington, BADASS, W1ck3d1nt3ntz, ceo54, DaRkReAlM, ghostman, karakurachow, megaplay, Emery1337x, SaM, geordieboy1979, timamirrockdude, Noir, Shedevil, bone111, JorgeMontana, BlueLady, xxxUniversalAbsurdityxxx &amp; many, many more &amp; to all the awesome people who are sharing (ALL THE UPLOADERS, THE RIPPERS, THE SCENE GROUPS, ETC, THE WHOLE P2P COMMUNITY)***wish i could list everyone***Thank you very much everyone &amp; i mean EVERYONE!!!\n\n*****help what we can with haiti or any other in need...the world is ONE big family*****","torrent":{"xt":"urn:btih:851e25af1af1fdf8031eace62b5d93a1f9cc6855","amp;dn":"Shes+Out+Of+My+League+TS+XViD+-+IMAGiNE","amp;tr":["udp%3A%2F%2Ftracker.openbittorrent.com%3A80","udp%3A%2F%2Fopen.demonii.com%3A1337","udp%3A%2F%2Ftracker.coppersurfer.tk%3A6969","udp%3A%2F%2Fexodus.desync.com%3A6969"],"infoHash":"851e25af1af1fdf8031eace62b5d93a1f9cc6855","infoHashBuffer":{"type":"Buffer","data":[133,30,37,175,26,241,253,248,3,30,172,230,43,93,147,161,249,204,104,85]},"announce":[],"urlList":[]}}